<svg width="4031" height="465" viewBox="0 0 4031 465" fill="none" xmlns="http://www.w3.org/2000/svg">
<path fill-rule="evenodd" clip-rule="evenodd" d="M3375.91 392.232C3390.09 387.001 3402.9 380.826 3414.33 373.646C3448.66 352.096 3469.33 322.387 3478.48 285.711L3533.71 241.813L3480.84 199.098C3473.27 157.327 3452.03 123.819 3414.33 100.152C3407.17 95.6524 3399.46 91.5477 3391.22 87.8228H3523.89L3631.46 177.539L3740.82 87.8228H3914.45L3726.53 240.027L3915.34 392.232H3732.78L3628.78 305.194L3523 392.232H3375.91ZM3448.92 309.205C3433.63 338.774 3406.67 360.51 3366.38 374.81L3448.92 309.205ZM3350.78 94.0139L3454.91 178.145C3439.8 137.626 3406.22 109.853 3350.78 94.0139Z" fill="black"/>
<path fill-rule="evenodd" clip-rule="evenodd" d="M2051.73 384.359C2056.1 382.076 2060.3 379.671 2064.33 377.141C2112.8 346.71 2134.06 300.008 2134.06 240.393C2134.06 180.779 2112.8 134.077 2064.33 103.646C2060.3 101.116 2056.1 98.7107 2051.73 96.4275V88.1895H2188.76L2408.81 261.372V88.1895H2529.32V392.598H2395.42L2172.25 214.506V392.598H2051.73V384.359ZM2051.73 361.849C2094.92 335.706 2114.43 295.553 2114.43 240.393C2114.43 185.233 2094.92 145.081 2051.73 118.937V361.849Z" fill="black"/>
<path d="M2910.12 393.298C2976.18 393.298 3015.46 372.32 3015.46 312.063C3015.46 264.304 2993.59 241.987 2952.97 232.167C2986.9 223.687 3004.3 202.708 3004.3 162.091C3004.3 106.744 2965.47 88.8896 2910.12 88.8896H2551.71V393.298H2910.12ZM2875.31 179.052C2887.36 179.052 2892.72 182.176 2892.72 190.657C2892.72 199.584 2887.36 203.155 2875.31 203.155H2670.44V179.052H2875.31ZM2884.68 286.621C2896.29 286.621 2903.88 287.961 2903.88 298.673C2903.88 309.832 2896.73 310.724 2884.68 310.724H2670.44V286.621H2884.68Z" fill="black"/>
<path fill-rule="evenodd" clip-rule="evenodd" d="M2996.5 125.554C3001.56 135.333 3004.3 147.389 3004.3 162.091C3004.3 190.016 2996.08 208.658 2979.91 220.338C2972.56 225.647 2963.57 229.517 2952.97 232.168C2963.59 234.735 2972.93 238.156 2980.93 242.663C3003.53 255.395 3015.46 276.79 3015.46 312.064C3015.46 329.53 3012.16 343.697 3005.87 355.008C2966.37 328.834 2948.45 289.757 2948.45 236.9C2948.45 188.416 2963.53 151.527 2996.5 125.554ZM3012.82 114.447C3054.58 89.8606 3117.92 78 3206.44 78C3389 78 3464.43 128.437 3464.43 236.9C3464.43 345.362 3389 395.799 3206.44 395.799C3124.75 395.799 3064.51 385.699 3022.88 364.818C3031.09 350.153 3035.09 332.434 3035.09 312.064C3035.09 285.235 3028.92 262.756 3014.59 245.394C3009.82 239.619 3004.39 234.702 2998.43 230.51C3001.53 227.644 3004.4 224.485 3007.03 221.007C3019.01 205.139 3023.93 185.081 3023.93 162.091C3023.93 143.631 3020.17 127.672 3012.82 114.447ZM3068.97 236.9C3068.97 281.534 3097.98 293.139 3206.44 293.139C3314.9 293.139 3341.69 281.534 3341.69 236.9C3341.69 192.265 3314.9 180.66 3206.44 180.66C3097.98 180.66 3068.97 192.265 3068.97 236.9Z" fill="black"/>
<path d="M1494.61 394.314C1588.35 394.314 1666.01 366.194 1666.01 241.663C1666.01 122.042 1589.69 89.9053 1494.61 89.9053H1177.71V394.314H1494.61ZM1298.22 192.565H1482.56C1522.29 192.565 1541.03 197.475 1541.03 241.663C1541.03 287.637 1522.29 291.654 1482.56 291.654H1298.22V192.565Z" fill="black"/>
<path d="M795.514 389.073V210.98L1018.69 389.073H1152.59V84.6641H1032.08V257.847L812.029 84.6641H675V389.073H795.514Z" fill="black"/>
<path d="M390.551 389.073C484.284 389.073 561.948 360.953 561.948 236.422C561.948 116.801 485.623 84.6641 390.551 84.6641H73.6445V389.073H390.551ZM194.158 187.324H378.5C418.225 187.324 436.971 192.234 436.971 236.422C436.971 282.396 418.225 286.413 378.5 286.413H194.158V187.324Z" fill="black"/>
<path fill-rule="evenodd" clip-rule="evenodd" d="M1652.46 356.173C1693.8 385.29 1760.25 399.293 1856.44 399.293C2039 399.293 2114.43 348.856 2114.43 240.394C2114.43 131.931 2039 81.4941 1856.44 81.4941C1758.42 81.4941 1691.29 96.0347 1650.13 126.29C1673.12 153.72 1685.64 191.748 1685.64 241.663C1685.64 291.295 1673.96 328.924 1652.46 356.173ZM1637.26 343.728C1610.7 318.37 1598.45 284.091 1598.45 240.394C1598.45 197.836 1610.07 164.212 1635.21 139.063C1654.64 162.35 1666.01 195.489 1666.01 241.663C1666.01 287.721 1655.39 320.591 1637.26 343.728ZM1718.97 240.394C1718.97 285.028 1747.98 296.633 1856.44 296.633C1964.9 296.633 1991.69 285.028 1991.69 240.394C1991.69 195.759 1964.9 184.154 1856.44 184.154C1747.98 184.154 1718.97 195.759 1718.97 240.394Z" fill="black"/>
<path fill-rule="evenodd" clip-rule="evenodd" d="M500 388.798V389H656V83H500V85.6892C508.304 89.7006 516.197 94.404 523.586 99.8892C560.768 127.49 581.562 172.071 581.562 236.387C581.562 303.01 560.517 348.005 522.914 375.297C515.71 380.526 508.041 384.994 500 388.798ZM500 366.71V107.872C537.897 129.681 561.933 169.259 561.933 236.387C561.933 305.93 537.713 345.407 500 366.71Z" fill="black"/>
</svg>
