<svg width="3085" height="427" viewBox="0 0 3085 427" fill="none" xmlns="http://www.w3.org/2000/svg">
<rect x="43" y="63" width="304" height="304" fill="#211A1A"/>
<ellipse cx="194.315" cy="331.821" rx="58.1643" ry="57.1785" fill="#211A1A"/>
<ellipse cx="195.3" cy="105.572" rx="118.3" ry="64.5722" fill="#211A1A"/>
<path fill-rule="evenodd" clip-rule="evenodd" d="M238.826 339.185C233.877 335.058 221.977 328.764 195.42 328.764C168.004 328.764 155.283 336.396 150.523 340.363C154.477 360.742 172.693 376.145 194.569 376.145C216.864 376.145 235.358 360.145 238.826 339.185ZM237.487 319.237H151.651C157.233 301.135 174.336 287.958 194.569 287.958C214.801 287.958 231.904 301.135 237.487 319.237Z" fill="white"/>
<path fill-rule="evenodd" clip-rule="evenodd" d="M260.171 93.9402C265.421 96.7066 271.115 100.1 275.007 105.244C271.115 110.388 265.421 113.781 260.171 116.548C244.915 124.587 221.963 130.368 195.187 130.368C168.411 130.368 145.46 124.587 130.203 116.548C124.953 113.781 119.26 110.388 115.367 105.244C119.26 100.1 124.953 96.7066 130.203 93.9402C145.46 85.9013 168.411 80.1194 195.187 80.1194C221.963 80.1194 244.915 85.9013 260.171 93.9402ZM302.547 105.244C302.547 136.487 254.481 161.814 195.187 161.814C135.894 161.814 87.8271 136.487 87.8271 105.244C87.8271 74.0011 135.894 48.6738 195.187 48.6738C254.481 48.6738 302.547 74.0011 302.547 105.244ZM275.268 93.2857C276.522 86.711 275.047 80.9464 267.773 75.1702C257.048 66.6521 222.597 56.2891 194.209 56.2891C165.821 56.2891 128.561 68.0958 120.524 74.6243C114.094 79.8471 113.207 85.7387 113.834 93.2857C120.675 84.8589 146.326 68.0054 194.209 68.0054C242.092 68.0054 268.199 84.8589 275.268 93.2857Z" fill="white"/>
<path fill-rule="evenodd" clip-rule="evenodd" d="M195.079 181.611C225.842 181.611 254.135 175.505 276.523 165.279C277.004 174.842 277.024 185.045 277.024 195.722C277.024 196.787 277.011 197.849 276.986 198.906L277.024 198.906V277.14L277.025 280.42C277.025 302.539 302.706 320.164 302.706 320.164H87.4521C87.4521 320.164 115.04 309.098 116.06 271.831L116.06 199.171L116.105 199.171C116.075 198.026 116.06 196.876 116.06 195.722C116.06 194.442 116.059 193.169 116.058 191.903C116.053 183.046 116.047 174.537 116.318 166.473C138.264 175.979 165.533 181.611 195.079 181.611ZM237.307 217.898V278.201C237.307 288.656 242.369 308.337 246.47 311.002H271.09C267.401 308.746 261.858 286.811 261.858 278.201V217.898V184.736C258.38 185.97 242.164 189.952 237.307 189.952V217.898Z" fill="white"/>
<path fill-rule="evenodd" clip-rule="evenodd" d="M2349.03 349.455V367.104H2469.54V189.012L2692.71 367.104H2826.62V62.6953H2706.11V235.878L2486.06 62.6953H2349.03V80.3432C2395.09 110.804 2415.35 156.698 2415.35 214.899C2415.35 273.1 2395.09 318.994 2349.03 349.455ZM2349.03 325.166C2381.06 299.255 2395.72 262.716 2395.72 214.899C2395.72 167.083 2381.06 130.544 2349.03 104.632V325.166Z" fill="#211A1A"/>
<path d="M1775.91 368.82C1869.64 368.82 1947.3 340.7 1947.3 216.169C1947.3 96.5482 1870.98 64.4111 1775.91 64.4111H1459V368.82H1775.91ZM1579.51 167.071H1763.86C1803.58 167.071 1822.33 171.981 1822.33 216.169C1822.33 262.143 1803.58 266.16 1763.86 266.16H1579.51V167.071Z" fill="#211A1A"/>
<path fill-rule="evenodd" clip-rule="evenodd" d="M1933.75 330.679C1975.09 359.796 2041.54 373.799 2137.73 373.799C2320.29 373.799 2395.72 323.362 2395.72 214.9C2395.72 106.437 2320.29 56 2137.73 56C2039.72 56 1972.58 70.5405 1931.42 100.796C1954.41 128.226 1966.93 166.254 1966.93 216.169C1966.93 265.801 1955.25 303.43 1933.75 330.679ZM1918.55 318.233C1891.99 292.876 1879.75 258.597 1879.75 214.9C1879.75 172.342 1891.36 138.718 1916.5 113.569C1935.93 136.856 1947.3 169.995 1947.3 216.169C1947.3 262.227 1936.68 295.097 1918.55 318.233ZM2000.26 214.9C2000.26 259.534 2029.27 271.139 2137.73 271.139C2246.2 271.139 2272.98 259.534 2272.98 214.9C2272.98 170.265 2246.2 158.66 2137.73 158.66C2029.27 158.66 2000.26 170.265 2000.26 214.9Z" fill="#211A1A"/>
<path d="M1080.51 368.579V190.486L1303.69 368.579H1437.59V64.1699H1317.08V237.353L1097.03 64.1699H960V368.579H1080.51Z" fill="#211A1A"/>
<path fill-rule="evenodd" clip-rule="evenodd" d="M856.304 215.928C856.304 340.459 778.639 368.579 684.907 368.579H368V64.1699H684.907C779.979 64.1699 856.304 96.3069 856.304 215.928ZM672.855 166.83H488.514V265.919H672.855C712.58 265.919 731.327 261.902 731.327 215.928C731.327 171.74 712.58 166.83 672.855 166.83Z" fill="#211A1A"/>
<path fill-rule="evenodd" clip-rule="evenodd" d="M814 357.54V368.506H940V64.5059H814V76.1335C815.549 77.1887 817.078 78.2756 818.586 79.3951C855.768 106.996 876.562 151.577 876.562 215.893C876.562 282.516 855.517 327.511 817.914 354.803C816.624 355.74 815.319 356.652 814 357.54ZM814 332.869V100.888C840.748 124.275 856.933 160.808 856.933 215.893C856.933 272.912 840.651 309.719 814 332.869Z" fill="#211A1A"/>
</svg>
