<svg width="1111" height="1111" viewBox="0 0 1111 1111" fill="none" xmlns="http://www.w3.org/2000/svg">
<rect width="1111" height="1111" fill="#211A1A"/>
<path fill-rule="evenodd" clip-rule="evenodd" d="M667.48 875.642C654.815 865.077 624.353 848.961 556.368 848.961C486.197 848.961 453.634 868.495 441.447 878.65C451.565 930.816 498.196 970.247 554.193 970.247C611.262 970.247 658.603 929.292 667.48 875.642ZM664.052 824.576H444.334C458.624 778.238 502.403 744.51 554.193 744.51C605.983 744.51 649.762 778.238 664.052 824.576Z" fill="white"/>
<path fill-rule="evenodd" clip-rule="evenodd" d="M722.116 247.871C735.556 254.952 750.129 263.638 760.092 276.805C750.129 289.973 735.556 298.659 722.116 305.74C683.064 326.318 624.313 341.118 555.773 341.118C487.234 341.118 428.483 326.318 389.43 305.74C375.991 298.659 361.417 289.973 351.454 276.805C361.417 263.638 375.991 254.952 389.43 247.871C428.483 227.293 487.234 212.493 555.773 212.493C624.313 212.493 683.064 227.293 722.116 247.871ZM830.588 276.805C830.588 356.779 707.549 421.611 555.773 421.611C403.997 421.611 280.958 356.779 280.958 276.805C280.958 196.832 403.997 132 555.773 132C707.549 132 830.588 196.832 830.588 276.805ZM760.751 246.19C763.961 229.36 760.185 214.605 741.568 199.819C714.113 178.015 625.926 151.488 553.261 151.488C480.596 151.488 385.219 181.71 364.645 198.422C348.186 211.791 345.917 226.872 347.522 246.19C365.032 224.62 430.693 181.479 553.261 181.479C675.829 181.479 742.658 224.62 760.751 246.19Z" fill="white"/>
<path fill-rule="evenodd" clip-rule="evenodd" d="M555.499 472.286C634.246 472.286 706.671 456.658 763.978 430.48C765.21 454.96 765.26 481.078 765.26 508.409C765.26 511.135 765.228 513.852 765.162 516.559L765.26 516.559V716.818L765.263 725.214C765.263 781.833 831 826.949 831 826.949H280.004C280.004 826.949 350.621 798.624 353.232 703.228L353.232 517.238L353.347 517.238C353.271 514.306 353.232 511.363 353.232 508.409C353.232 505.133 353.23 501.873 353.228 498.632V498.632C353.214 475.961 353.2 454.18 353.894 433.539C410.069 457.871 479.868 472.286 555.499 472.286ZM663.588 565.176V719.536C663.588 746.298 676.547 796.675 687.042 803.497H750.065C740.62 797.725 726.432 741.575 726.432 719.536V565.176V480.289C717.53 483.448 676.022 493.64 663.588 493.64V565.176Z" fill="white"/>
</svg>
